<svg xmlns="http://www.w3.org/2000/svg" width="16.358" height="21.232" viewBox="0 0 16.358 21.232">
  <g id="flash" transform="translate(-110.682)">
    <g id="Group_1" data-name="Group 1" transform="translate(110.682)">
      <path id="Path_6" data-name="Path 6" d="M126.987,7.29a.488.488,0,0,0-.432-.212h-5.667L126.507.531a.253.253,0,0,0,0-.354A.562.562,0,0,0,126.075,0H118.39a.562.562,0,0,0-.432.177l-7.2,10.616a.253.253,0,0,0,0,.354.646.646,0,0,0,.432.177h4.947l-5.379,9.448c-.1.142,0,.318.192.425a.468.468,0,0,0,.24.035.667.667,0,0,0,.384-.106L126.939,7.679A.3.3,0,0,0,126.987,7.29Zm-14.12,11.571,4.419-7.785a.269.269,0,0,0-.048-.318.688.688,0,0,0-.384-.142h-4.9L118.678.708h6.532l-5.667,6.546a.253.253,0,0,0,0,.354.562.562,0,0,0,.432.177h5.571Z" transform="translate(-110.682)"/>
    </g>
  </g>
</svg>
