<svg xmlns="http://www.w3.org/2000/svg" width="20.343" height="21.96" viewBox="0 0 20.343 21.96">
  <g id="telephone" transform="matrix(0.998, 0.07, -0.07, 0.998, 0.534, -0.064)">
    <path id="Path_3" data-name="Path 3" d="M4.751,13.752a20.525,20.525,0,0,0,6.711,5.719,9.834,9.834,0,0,0,3.756,1.209c.091,0,.177.009.268.009A3,3,0,0,0,17.9,19.561a.092.092,0,0,0,.016-.021,10.694,10.694,0,0,1,.761-.857c.185-.193.374-.394.556-.6A2.194,2.194,0,0,0,19.222,15l-2.368-2.576a1.854,1.854,0,0,0-1.387-.694,1.914,1.914,0,0,0-1.4.69l-1.411,1.535c-.13-.081-.264-.154-.39-.223a4.766,4.766,0,0,1-.433-.257A15.464,15.464,0,0,1,8.262,9.941,9.519,9.519,0,0,1,7.056,7.849c.37-.364.717-.746,1.052-1.119.118-.133.24-.266.363-.4a2.287,2.287,0,0,0,.654-1.543,2.269,2.269,0,0,0-.654-1.543L7.3,1.968c-.138-.15-.268-.3-.4-.446-.26-.292-.532-.592-.8-.862A1.893,1.893,0,0,0,4.708,0,1.948,1.948,0,0,0,3.3.664l-1.474,1.6a3.424,3.424,0,0,0-.9,2.109,8.561,8.561,0,0,0,.548,3.43A20.385,20.385,0,0,0,4.751,13.752ZM1.89,4.467a2.356,2.356,0,0,1,.627-1.458L3.983,1.415a1.025,1.025,0,0,1,.725-.364.976.976,0,0,1,.709.373c.264.266.512.544.78.84.134.15.272.3.41.454L7.781,4a1.205,1.205,0,0,1,.37.8,1.205,1.205,0,0,1-.37.8c-.122.133-.244.27-.366.4-.366.4-.709.785-1.088,1.149l-.02.021a.891.891,0,0,0-.2.952c0,.013.008.021.012.034a10.287,10.287,0,0,0,1.383,2.448,16.322,16.322,0,0,0,3.8,3.764,5.516,5.516,0,0,0,.52.309,4.766,4.766,0,0,1,.433.257l.043.026a.772.772,0,0,0,.382.107.813.813,0,0,0,.587-.292l1.474-1.6a1.011,1.011,0,0,1,.721-.382.966.966,0,0,1,.7.382l2.376,2.581a1.092,1.092,0,0,1-.012,1.616c-.166.193-.339.377-.524.57a11.954,11.954,0,0,0-.824.93,2.085,2.085,0,0,1-1.691.78c-.067,0-.138,0-.2-.009a8.937,8.937,0,0,1-3.4-1.106A19.5,19.5,0,0,1,5.5,13.092,19.507,19.507,0,0,1,2.387,7.455,7.457,7.457,0,0,1,1.89,4.467Z" transform="translate(0 0)"/>
  </g>
</svg>
