<svg xmlns="http://www.w3.org/2000/svg" width="17.875" height="21.425" viewBox="0 0 17.875 21.425">
  <g id="user" transform="translate(0 0)">
    <path id="Path_1" data-name="Path 1" d="M92.192,10.321a4.993,4.993,0,0,0,3.649-1.512A4.993,4.993,0,0,0,97.352,5.16a4.994,4.994,0,0,0-1.512-3.649,5.159,5.159,0,0,0-7.3,0A4.993,4.993,0,0,0,87.032,5.16a4.993,4.993,0,0,0,1.512,3.649,5,5,0,0,0,3.649,1.512ZM89.431,2.4a3.9,3.9,0,0,1,5.521,0A3.731,3.731,0,0,1,96.1,5.16a3.731,3.731,0,0,1-1.144,2.761,3.9,3.9,0,0,1-5.521,0A3.73,3.73,0,0,1,88.287,5.16,3.73,3.73,0,0,1,89.431,2.4Zm0,0" transform="translate(-83.39)"/>
    <path id="Path_2" data-name="Path 2" d="M17.831,253.442a12.745,12.745,0,0,0-.174-1.354,10.665,10.665,0,0,0-.333-1.361,6.725,6.725,0,0,0-.56-1.269,4.786,4.786,0,0,0-.844-1.1,3.72,3.72,0,0,0-1.212-.762,4.189,4.189,0,0,0-1.547-.28,1.571,1.571,0,0,0-.839.356c-.251.164-.545.354-.874.563a5.006,5.006,0,0,1-1.13.5,4.39,4.39,0,0,1-2.765,0,4.993,4.993,0,0,1-1.13-.5c-.325-.208-.619-.4-.874-.564a1.569,1.569,0,0,0-.838-.356,4.184,4.184,0,0,0-1.547.28,3.717,3.717,0,0,0-1.212.762,4.788,4.788,0,0,0-.843,1.1,6.736,6.736,0,0,0-.56,1.27,10.691,10.691,0,0,0-.333,1.361,12.659,12.659,0,0,0-.174,1.354c-.028.409-.043.835-.043,1.265A3.558,3.558,0,0,0,1.056,257.4a3.8,3.8,0,0,0,2.723.993H14.1a3.8,3.8,0,0,0,2.723-.993,3.556,3.556,0,0,0,1.057-2.692c0-.432-.015-.857-.043-1.265Zm-1.879,3.047a2.561,2.561,0,0,1-1.857.647H3.779a2.561,2.561,0,0,1-1.857-.647,2.323,2.323,0,0,1-.667-1.782c0-.4.013-.8.04-1.178a11.419,11.419,0,0,1,.157-1.219,9.43,9.43,0,0,1,.293-1.2,5.484,5.484,0,0,1,.455-1.032,3.548,3.548,0,0,1,.62-.813,2.467,2.467,0,0,1,.806-.5,2.889,2.889,0,0,1,.989-.191c.044.023.122.068.249.151.258.168.556.36.884.57a6.221,6.221,0,0,0,1.419.634,5.644,5.644,0,0,0,3.538,0,6.228,6.228,0,0,0,1.42-.635c.337-.215.626-.4.884-.57.127-.083.205-.127.249-.151a2.891,2.891,0,0,1,.989.191,2.471,2.471,0,0,1,.806.5,3.538,3.538,0,0,1,.62.813,5.466,5.466,0,0,1,.456,1.032,9.407,9.407,0,0,1,.293,1.2,11.514,11.514,0,0,1,.157,1.22h0c.027.379.04.775.04,1.178a2.323,2.323,0,0,1-.667,1.782Zm0,0" transform="translate(0 -236.967)"/>
  </g>
</svg>
