<svg xmlns="http://www.w3.org/2000/svg" width="16.661" height="22.167" viewBox="0 0 16.661 22.167">
  <g id="Water" transform="translate(-8 -2)">
    <path id="Path_4" data-name="Path 4" d="M16.331,24.167A8.208,8.208,0,0,1,8,16.106C8,9.1,15.658,2.409,15.984,2.128a.533.533,0,0,1,.693,0C17,2.409,24.661,9.1,24.661,16.106a8.208,8.208,0,0,1-8.331,8.061Zm0-20.972c-1.493,1.393-7.289,7.174-7.289,12.911a7.174,7.174,0,0,0,7.289,7.053,7.174,7.174,0,0,0,7.289-7.053C23.62,10.369,17.823,4.588,16.331,3.195Z"/>
    <path id="Path_5" data-name="Path 5" d="M15.383,35a.518.518,0,0,1-.26-.07A6.271,6.271,0,0,1,12,29.521a.521.521,0,1,1,1.041,0,5.226,5.226,0,0,0,2.6,4.51.521.521,0,0,1-.261.971Z" transform="translate(-1.917 -13.685)"/>
  </g>
</svg>
